<svg width="288" height="288" viewBox="0 0 288 288" fill="none" xmlns="http://www.w3.org/2000/svg">
<g clip-path="url(#clip0_162_100)">
<path d="M288 0H0V288H288V0Z" fill="#DE6536"/>
<path d="M143.208 206C150.931 206 157.267 200.002 157.267 192.691H129.149C129.149 200.002 135.485 206 143.208 206Z" fill="white"/>
<path d="M193.901 169.634C194 169.728 193.901 169.54 193.901 169.634C193.01 165.51 188.851 162.417 184 159.137C183.406 157.918 182.812 156.7 182.416 155.481C181.228 152.67 180.337 149.764 179.941 147.234V132.8C179.941 127.551 178.851 121.553 176.574 115.46C173.901 108.337 170.04 102.339 165.881 98.1209C165.881 98.1209 165.881 98.1209 165.782 98.1209C164.198 96.9962 162.515 96.059 160.931 95.4029C158.851 94.4656 156.871 93.9032 154.99 93.8095C154.792 93.1534 154.495 92.4036 154.198 91.8413C154.099 91.5601 153.901 91.1852 153.802 90.904C151.426 85.5616 147.96 82.2812 144 82C140.04 82.2812 136.574 85.5616 134.198 90.8103C134.099 91.0915 133.901 91.3726 133.802 91.7475C133.505 92.4036 133.307 93.0597 133.01 93.7158C131.129 93.9032 129.149 94.4656 127.069 95.3091C125.485 96.059 123.802 96.9025 122.218 98.0272C122.218 98.0272 122.218 98.0272 122.119 98.0272C117.96 102.245 114.099 108.243 111.426 115.367C109.149 121.459 108.059 127.457 108.059 132.706V147.14C107.663 149.67 106.772 152.576 105.584 155.388C105.188 156.606 104.594 157.731 104.099 159.043C99.3465 162.323 95.9802 165.042 94.099 169.54C94.099 169.447 94.099 169.634 94.099 169.54L94 171.602C94.099 172.071 94 172.071 94.297 172.915C94.495 173.383 94.396 173.196 94.495 173.383C96.1782 177.32 101.228 179.663 108.059 180.225L130.238 180.506H134.198H144H153.802H157.762L179.941 180.225C186.673 179.663 191.723 177.32 193.505 173.383C193.604 173.196 193.604 173.102 193.703 172.915C193.802 172.446 194 172.071 194 171.602L193.901 169.634Z" fill="white"/>
</g>
<defs>
<clipPath id="clip0_162_100">
<rect width="288" height="288" fill="white"/>
</clipPath>
</defs>
</svg>
